<?xml version="1.0" encoding="iso-8859-1"?>
<!-- Generator: Adobe Illustrator 19.0.0, SVG Export Plug-In . SVG Version: 6.00 Build 0)  -->
<svg version="1.1" id="Layer_1" xmlns="http://www.w3.org/2000/svg" xmlns:xlink="http://www.w3.org/1999/xlink" x="0px" y="0px"
	 viewBox="0 0 512 512" style="enable-background:new 0 0 512 512;" xml:space="preserve">
<g>
	<g>
		<path d="M500.87,100.174H378.435V64.868c12.955-4.595,22.261-16.967,22.261-31.477C400.696,14.979,385.716,0,367.304,0
			c-18.412,0-33.391,14.979-33.391,33.391c0,14.51,9.306,26.882,22.261,31.477v35.306H267.13V64.868
			c12.955-4.595,22.261-16.967,22.261-31.477C289.391,14.979,274.412,0,256,0c-18.412,0-33.391,14.979-33.391,33.391
			c0,14.51,9.306,26.882,22.261,31.477v35.306h-89.043V64.868c12.955-4.595,22.261-16.967,22.261-31.477
			C178.087,14.979,163.108,0,144.696,0c-18.412,0-33.391,14.979-33.391,33.391c0,14.51,9.306,26.882,22.261,31.477v35.306H11.13
			c-6.146,0-11.13,4.984-11.13,11.13v77.913v133.565v77.913c0,6.146,4.984,11.13,11.13,11.13h122.435v35.306
			c-12.955,4.595-22.261,16.967-22.261,31.477c0,18.412,14.979,33.391,33.391,33.391c18.412,0,33.391-14.979,33.391-33.391
			c0-14.51-9.306-26.882-22.261-31.477v-35.306h89.043v35.306c-12.955,4.595-22.261,16.967-22.261,31.477
			C222.609,497.021,237.588,512,256,512c18.412,0,33.391-14.979,33.391-33.391c0-14.51-9.306-26.882-22.261-31.477v-35.306h89.043
			v35.306c-12.955,4.595-22.261,16.967-22.261,31.477c0,18.412,14.979,33.391,33.391,33.391c18.412,0,33.391-14.979,33.391-33.391
			c0-14.51-9.306-26.882-22.261-31.477v-35.306H500.87c6.146,0,11.13-4.984,11.13-11.13v-77.913V189.217v-77.913
			C512,105.158,507.016,100.174,500.87,100.174z M367.304,22.261c6.137,0,11.13,4.993,11.13,11.13s-4.993,11.13-11.13,11.13
			s-11.13-4.993-11.13-11.13S361.167,22.261,367.304,22.261z M144.696,22.261c6.137,0,11.13,4.993,11.13,11.13
			s-4.993,11.13-11.13,11.13s-11.13-4.993-11.13-11.13S138.558,22.261,144.696,22.261z M22.261,200.348h44.522v111.304H22.261
			V200.348z M144.696,489.739c-6.137,0-11.13-4.993-11.13-11.13s4.993-11.13,11.13-11.13s11.13,4.993,11.13,11.13
			S150.833,489.739,144.696,489.739z M155.826,389.565v-44.522c0-6.146-4.984-11.13-11.13-11.13s-11.13,4.984-11.13,11.13v44.522
			H22.261v-55.652h55.652c6.146,0,11.13-4.984,11.13-11.13V189.217c0-6.146-4.984-11.13-11.13-11.13H22.261v-55.652h111.304V270.47
			c0,6.146,4.984,11.13,11.13,11.13s11.13-4.984,11.13-11.13V122.435h89.043v56.46c-37.705,5.419-66.783,37.925-66.783,77.105
			s29.077,71.687,66.783,77.105v56.46H155.826z M244.87,201.468v109.065c-25.372-5.171-44.522-27.656-44.522-54.532
			S219.498,206.639,244.87,201.468z M256,489.739c-6.137,0-11.13-4.993-11.13-11.13s4.993-11.13,11.13-11.13
			c6.137,0,11.13,4.993,11.13,11.13S262.137,489.739,256,489.739z M256,44.522c-6.137,0-11.13-4.993-11.13-11.13
			s4.993-11.13,11.13-11.13c6.137,0,11.13,4.993,11.13,11.13S262.137,44.522,256,44.522z M267.13,201.468
			c25.372,5.171,44.522,27.656,44.522,54.532s-19.15,49.361-44.522,54.532V201.468z M367.304,489.739
			c-6.137,0-11.13-4.993-11.13-11.13s4.993-11.13,11.13-11.13s11.13,4.993,11.13,11.13S373.442,489.739,367.304,489.739z
			 M489.739,311.652h-44.522V200.348h44.522V311.652z M489.739,178.087h-55.652c-6.146,0-11.13,4.984-11.13,11.13v133.565
			c0,6.146,4.984,11.13,11.13,11.13h55.652v55.652H378.435V233.739c0-6.146-4.984-11.13-11.13-11.13
			c-6.146,0-11.13,4.984-11.13,11.13v155.826H267.13v-56.46c37.705-5.419,66.783-37.925,66.783-77.105s-29.077-71.687-66.783-77.105
			v-56.46h89.043v66.783c0,6.146,4.984,11.13,11.13,11.13c6.146,0,11.13-4.984,11.13-11.13v-66.783h111.304V178.087z"/>
	</g>
</g>
<g>
	<g>
		<path d="M155.602,306.51c-0.132-0.712-0.356-1.415-0.634-2.081c-0.278-0.679-0.623-1.325-1.024-1.926
			c-0.4-0.612-0.867-1.18-1.38-1.692c-0.512-0.512-1.08-0.979-1.692-1.38c-0.601-0.4-1.247-0.746-1.926-1.024
			c-0.668-0.278-1.368-0.489-2.08-0.634c-1.436-0.289-2.916-0.289-4.341,0c-0.712,0.146-1.414,0.356-2.081,0.634
			c-0.679,0.278-1.323,0.624-1.924,1.024c-0.613,0.401-1.181,0.868-1.693,1.38c-0.512,0.512-0.979,1.08-1.38,1.692
			c-0.4,0.601-0.746,1.247-1.024,1.926c-0.278,0.668-0.501,1.369-0.646,2.081c-0.145,0.712-0.21,1.447-0.21,2.17
			c0,0.722,0.067,1.458,0.21,2.182c0.145,0.701,0.367,1.402,0.646,2.081c0.278,0.668,0.624,1.313,1.024,1.914
			c0.401,0.612,0.868,1.18,1.38,1.692c0.512,0.512,1.08,0.979,1.693,1.391c0.601,0.401,1.245,0.746,1.924,1.024
			c0.669,0.278,1.369,0.49,2.081,0.634s1.447,0.211,2.17,0.211c0.722,0,1.458-0.068,2.17-0.211c0.712-0.145,1.414-0.356,2.08-0.634
			c0.679-0.278,1.325-0.623,1.926-1.024c0.612-0.412,1.18-0.879,1.692-1.391c0.513-0.512,0.981-1.08,1.38-1.692
			c0.401-0.601,0.746-1.247,1.024-1.914c0.278-0.679,0.501-1.38,0.634-2.081c0.145-0.724,0.223-1.459,0.223-2.182
			C155.825,307.957,155.747,307.221,155.602,306.51z"/>
	</g>
</g>
</svg>
